<?xml version="1.0" encoding="UTF-8"?>
<svg id="Layer_1" xmlns="http://www.w3.org/2000/svg" version="1.1" viewBox="0 0 1920 1080">
  <!-- Generator: Adobe Illustrator 29.5.1, SVG Export Plug-In . SVG Version: 2.1.0 Build 141)  -->
  <defs>
    <style>
      .st0 {
        fill: #e6e7e8;
        stroke: #231f20;
        stroke-linecap: round;
        stroke-miterlimit: 10;
      }

      .st1 {
        fill: #cfa2e0;
      }

      .st2 {
        fill: #00ff06;
      }

      .st3 {
        fill: #fff;
      }

      .st4 {
        fill: red;
      }

      .st5 {
        fill: #ffce00;
      }

      .st6 {
        fill: #ff00cf;
      }

      .st7 {
        fill: #00cfff;
      }

      .st8 {
        fill: #1200ff;
      }
    </style>
  </defs>
  <g id="djpannel">
    <g>
      <rect class="st1" x="574.85" y="300.7" width="771.03" height="478.3" rx="52.33" ry="52.33"/>
      <path d="M1293.55,306.7c25.55,0,46.33,20.79,46.33,46.33v373.63c0,25.55-20.79,46.33-46.33,46.33h-666.37c-25.55,0-46.33-20.79-46.33-46.33v-373.63c0-25.55,20.79-46.33,46.33-46.33h666.37M1293.55,294.7h-666.37c-32.22,0-58.33,26.12-58.33,58.33v373.63c0,32.22,26.12,58.33,58.33,58.33h666.37c32.22,0,58.33-26.12,58.33-58.33v-373.63c0-32.22-26.12-58.33-58.33-58.33h0Z"/>
    </g>
    <g id="dropzone1">
      <rect class="st3" x="1021.7" y="343.11" width="269.94" height="234.19" rx="42.49" ry="42.49"/>
      <path d="M1249.16,349.11c20.12,0,36.48,16.37,36.48,36.48v149.22c0,20.12-16.37,36.48-36.48,36.48h-184.97c-20.12,0-36.48-16.37-36.48-36.48v-149.22c0-20.12,16.37-36.48,36.48-36.48h184.97M1249.16,337.11h-184.97c-26.78,0-48.48,21.71-48.48,48.48v149.22c0,26.78,21.71,48.48,48.48,48.48h184.97c26.78,0,48.48-21.71,48.48-48.48v-149.22c0-26.78-21.71-48.48-48.48-48.48h0Z"/>
    </g>
    <g id="pannel">
      <g>
        <rect class="st3" x="615.46" y="343.11" width="349" height="234.19" rx="44" ry="44"/>
        <path d="M920.46,349.11c20.95,0,38,17.05,38,38v146.18c0,20.95-17.05,38-38,38h-261c-20.95,0-38-17.05-38-38v-146.18c0-20.95,17.05-38,38-38h261M920.46,337.11h-261c-27.61,0-50,22.39-50,50v146.18c0,27.61,22.39,50,50,50h261c27.61,0,50-22.39,50-50v-146.18c0-27.61-22.39-50-50-50h0Z"/>
      </g>
      <g id="colorcircles">
        <rect class="st4" x="632.59" y="362.45" width="92.45" height="92.45" rx="46.22" ry="46.22"/>
        <rect class="st7" x="743.73" y="362.45" width="92.45" height="92.45" rx="46.22" ry="46.22"/>
        <rect class="st2" x="848.97" y="362.45" width="92.45" height="92.45" rx="46.22" ry="46.22"/>
        <rect class="st5" x="635.54" y="470.67" width="92.45" height="92.45" rx="46.22" ry="46.22"/>
        <rect class="st6" x="746.69" y="470.67" width="92.45" height="92.45" rx="46.22" ry="46.22"/>
        <rect class="st8" x="851.92" y="470.67" width="92.45" height="92.45" rx="46.22" ry="46.22"/>
      </g>
    </g>
   <!--   <g id="reset">
      <path class="st4" d="M1219.37,619.29h29.84c23.42,0,42.43,19.01,42.43,42.43v21.06c0,23.42-19.01,42.43-42.43,42.43h-29.84c-23.42,0-42.43-19.01-42.43-42.43v-21.06c0-23.42,19.01-42.43,42.43-42.43Z"/>
      <path d="M1249.21,625.29c20.09,0,36.43,16.34,36.43,36.43v21.06c0,20.09-16.34,36.43-36.43,36.43h-29.84c-20.09,0-36.43-16.34-36.43-36.43v-21.06c0-20.09,16.34-36.43,36.43-36.43h29.84M1249.21,613.29h-29.84c-26.75,0-48.43,21.68-48.43,48.43v21.06c0,26.75,21.68,48.43,48.43,48.43h29.84c26.75,0,48.43-21.68,48.43-48.43v-21.06c0-26.75-21.68-48.43-48.43-48.43h0Z"/>
    </g>
        <path class="st3" d="M938.33,619.29h29.84c23.42,0,42.43,19.01,42.43,42.43v21.06c0,23.42-19.01,42.43-42.43,42.43h-29.84c-23.42,0-42.43-19.01-42.43-42.43v-21.06c0-23.42,19.01-42.43,42.43-42.43Z"/>
  <g id="play">
      <g>
        <path class="st3" d="M657.89,619.29h29.84c23.42,0,42.43,19.01,42.43,42.43v21.06c0,23.42-19.01,42.43-42.43,42.43h-29.84c-23.42,0-42.43-19.01-42.43-42.43v-21.06c0-23.42,19.01-42.43,42.43-42.43Z"/>
        <path d="M687.73,625.29c20.09,0,36.43,16.34,36.43,36.43v21.06c0,20.09-16.34,36.43-36.43,36.43h-29.84c-20.09,0-36.43-16.34-36.43-36.43v-21.06c0-20.09,16.34-36.43,36.43-36.43h29.84M687.73,613.29h-29.84c-26.75,0-48.43,21.68-48.43,48.43v21.06c0,26.75,21.68,48.43,48.43,48.43h29.84c26.75,0,48.43-21.68,48.43-48.43v-21.06c0-26.75-21.68-48.43-48.43-48.43h0Z"/>
      </g>
      <polygon class="st0" points="704.16 672.25 653.47 701.52 653.47 642.98 704.16 672.25"/>
    </g>-->
   <!--g id="pause">
      <g>
        <path class="st3" d="M798.26,619.29h29.85c23.42,0,42.43,19.01,42.43,42.43v21.06c0,23.42-19.01,42.43-42.43,42.43h-29.84c-23.42,0-42.43-19.01-42.43-42.43v-21.06c0-23.42,19.01-42.43,42.43-42.43Z"/>
        <path d="M828.1,625.29c20.09,0,36.43,16.34,36.43,36.43v21.06c0,20.09-16.34,36.43-36.43,36.43h-29.84c-20.09,0-36.43-16.34-36.43-36.43v-21.06c0-20.09,16.34-36.43,36.43-36.43h29.84M828.1,613.29h-29.84c-26.75,0-48.43,21.68-48.43,48.43v21.06c0,26.75,21.68,48.43,48.43,48.43h29.84c26.75,0,48.43-21.68,48.43-48.43v-21.06c0-26.75-21.68-48.43-48.43-48.43h0Z"/>
      </g>
      <rect class="st0" x="798.12" y="648.83" width="9.56" height="46.85"/>
      <rect class="st0" x="818.68" y="648.83" width="9.56" height="46.85"/>
    </g>
    <g id="_x2D_">/
      <g>
        <path class="st3" d="M1078.4,619.29h29.85c23.42,0,42.43,19.01,42.43,42.43v21.06c0,23.42-19.01,42.43-42.43,42.43h-29.84c-23.42,0-42.43-19.01-42.43-42.43v-21.06c0-23.42,19.01-42.43,42.43-42.43Z"/>
        <path d="M1108.24,625.29c20.09,0,36.43,16.34,36.43,36.43v21.06c0,20.09-16.34,36.43-36.43,36.43h-29.84c-20.09,0-36.43-16.34-36.43-36.43v-21.06c0-20.09,16.34-36.43,36.43-36.43h29.84M1108.24,613.29h-29.84c-26.75,0-48.43,21.68-48.43,48.43v21.06c0,26.75,21.68,48.43,48.43,48.43h29.84c26.75,0,48.43-21.68,48.43-48.43v-21.06c0-26.75-21.68-48.43-48.43-48.43h0Z"/>
      </g>
      <rect class="st0" x="1088.99" y="648.83" width="9.56" height="46.85" transform="translate(421.52 1766.02) rotate(-90)"/>
    </g>
    <g id="_x2B_">
      <g>
        <path class="st3" d="M938.33,619.29h29.84c23.42,0,42.43,19.01,42.43,42.43v21.06c0,23.42-19.01,42.43-42.43,42.43h-29.84c-23.42,0-42.43-19.01-42.43-42.43v-21.06c0-23.42,19.01-42.43,42.43-42.43Z"/>
        <path d="M968.17,625.29c20.09,0,36.43,16.34,36.43,36.43v21.06c0,20.09-16.34,36.43-36.43,36.43h-29.84c-20.09,0-36.43-16.34-36.43-36.43v-21.06c0-20.09,16.34-36.43,36.43-36.43h29.84M968.17,613.29h-29.84c-26.75,0-48.43,21.68-48.43,48.43v21.06c0,26.75,21.68,48.43,48.43,48.43h29.84c26.75,0,48.43-21.68,48.43-48.43v-21.06c0-26.75-21.68-48.43-48.43-48.43h0Z"/>
      </g>
      <rect class="st0" x="948.47" y="648.83" width="9.56" height="46.85" transform="translate(281 1625.5) rotate(-90)"/>
      <rect class="st0" x="948.47" y="648.83" width="9.56" height="46.85"/>
    </g>--> 
  </g>
</svg>