<?xml version="1.0" encoding="UTF-8"?>
<svg id="Layer_1" data-name="Layer 1" xmlns="http://www.w3.org/2000/svg" xmlns:xlink="http://www.w3.org/1999/xlink" viewBox="0 0 1002 547.37">
  <defs>
    <style>
      .cls-1 {
        fill: url(#linear-gradient-2);
      }

      .cls-2 {
        fill: url(#linear-gradient-4);
      }

      .cls-3 {
        fill: url(#radial-gradient);
      }

      .cls-4 {
        fill: url(#radial-gradient-3);
      }

      .cls-5 {
        fill: url(#linear-gradient-3);
      }

      .cls-6 {
        fill: url(#linear-gradient-5);
      }

      .cls-7 {
        fill: #d8d8d8;
      }

      .cls-8 {
        fill: #3d0060;
      }

      .cls-9 {
        fill: url(#radial-gradient-2);
      }

      .cls-10 {
        fill: none;
        stroke: #d8d8d8;
        stroke-miterlimit: 10;
      }

      .cls-11 {
        fill: url(#linear-gradient-6);
      }

      .cls-12 {
        fill: #cecace;
      }

      .cls-13 {
        fill: #c6c6c6;
      }

      .cls-14 {
        fill: url(#linear-gradient);
      }
    </style>
    <radialGradient id="radial-gradient" cx="501" cy="311.1" fx="501" fy="311.1" r="304.29" gradientUnits="userSpaceOnUse">
      <stop offset="0" stop-color="#d6d6d6"/>
      <stop offset=".17" stop-color="#d2d2d2"/>
      <stop offset=".31" stop-color="#c8c8c8"/>
      <stop offset=".44" stop-color="#b7b7b7"/>
      <stop offset=".56" stop-color="#9f9f9f"/>
      <stop offset=".68" stop-color="gray"/>
      <stop offset=".79" stop-color="#5a5a5a"/>
      <stop offset=".9" stop-color="#2d2d2d"/>
      <stop offset="1" stop-color="#000"/>
    </radialGradient>
    <linearGradient id="linear-gradient" x1="573.71" y1="339.51" x2="991.05" y2="339.51" gradientUnits="userSpaceOnUse">
      <stop offset="0" stop-color="#f22aff"/>
      <stop offset=".08" stop-color="#e82ffd"/>
      <stop offset=".21" stop-color="#cf3cf8"/>
      <stop offset=".37" stop-color="#a553f0"/>
      <stop offset=".56" stop-color="#6b72e5"/>
      <stop offset=".78" stop-color="#2399d7"/>
      <stop offset=".79" stop-color="#1e9cd7"/>
      <stop offset=".99" stop-color="#2aeaff"/>
    </linearGradient>
    <linearGradient id="linear-gradient-2" x1="578.33" y1="339.51" x2="987.03" y2="339.51" gradientUnits="userSpaceOnUse">
      <stop offset="0" stop-color="#000"/>
      <stop offset=".05" stop-color="#161616"/>
      <stop offset=".18" stop-color="#484848"/>
      <stop offset=".32" stop-color="#747474"/>
      <stop offset=".45" stop-color="#979797"/>
      <stop offset=".59" stop-color="#b2b2b2"/>
      <stop offset=".72" stop-color="#c6c6c6"/>
      <stop offset=".86" stop-color="#d2d2d2"/>
      <stop offset="1" stop-color="#d6d6d6"/>
    </linearGradient>
    <linearGradient id="linear-gradient-3" x1="532.08" y1="311.7" x2="832.99" y2="311.7" xlink:href="#linear-gradient"/>
    <radialGradient id="radial-gradient-2" cx="682.53" cy="311.7" fx="682.53" fy="311.7" r="144.45" gradientUnits="userSpaceOnUse">
      <stop offset="0" stop-color="#d6d6d6"/>
      <stop offset=".54" stop-color="#d7d4d7"/>
      <stop offset=".73" stop-color="#decfde"/>
      <stop offset=".87" stop-color="#eac5ea"/>
      <stop offset=".98" stop-color="#fbb8fb"/>
      <stop offset="1" stop-color="#ffb5ff"/>
    </radialGradient>
    <linearGradient id="linear-gradient-4" x1="10.96" y1="339.51" x2="428.29" y2="339.51" xlink:href="#linear-gradient"/>
    <linearGradient id="linear-gradient-5" x1="14.98" y1="339.51" x2="423.68" y2="339.51" gradientUnits="userSpaceOnUse">
      <stop offset="0" stop-color="#d6d6d6"/>
      <stop offset=".13" stop-color="#d1d1d1"/>
      <stop offset=".27" stop-color="#c5c5c5"/>
      <stop offset=".41" stop-color="#b0b0b0"/>
      <stop offset=".55" stop-color="#929292"/>
      <stop offset=".69" stop-color="#6c6c6c"/>
      <stop offset=".84" stop-color="#3d3d3d"/>
      <stop offset=".98" stop-color="#070707"/>
      <stop offset="1" stop-color="#000"/>
    </linearGradient>
    <linearGradient id="linear-gradient-6" x1="169.02" y1="311.7" x2="469.92" y2="311.7" xlink:href="#linear-gradient"/>
    <radialGradient id="radial-gradient-3" cx="319.47" cy="311.7" fx="319.47" fy="311.7" r="144.45" xlink:href="#radial-gradient-2"/>
  </defs>
  <g id="speaker">
    <g id="foundation">
      <g id="part3">
        <polygon points="699.43 354.35 596.64 532.39 405.36 532.39 302.57 354.35 405.36 176.31 596.64 176.31 699.43 354.35"/>
        <polygon class="cls-13" points="687.89 354.35 590.87 522.39 411.14 522.39 314.12 354.35 411.14 186.31 590.87 186.31 687.89 354.35"/>
      </g>
      <g id="part4">
        <path d="M902.16,172.89v327.58H99.84V172.89l7.62-1.87c69.41-17.05,140.46-29.85,211.19-38.04,60.2-6.97,121.47-10.75,182.35-11.26,60.88.51,122.16,4.29,182.36,11.26,70.73,8.19,141.78,20.99,211.19,38.04l7.61,1.87Z"/>
        <path class="cls-3" d="M892.16,180.73v309.74H109.84V180.73c63.99-15.71,134.14-29.03,209.96-37.81,62.72-7.27,123.24-10.72,181.2-11.2,57.97.48,118.49,3.93,181.21,11.2,75.82,8.78,145.97,22.1,209.95,37.81Z"/>
      </g>
    </g>
    <g id="part2">
      <path d="M899.28,547.37l3.08-2.63c30.03-25.64,54.92-57.9,71.95-93.31,15.09-31.36,24.24-64.92,27.17-99.75v-.15c1.78-25,.37-74.31-28.98-123.64-17.4-29.25-42.14-54.19-71.56-72.14l-.63-.38-.68-.3c-34.91-15.32-73.5-23.42-111.59-23.42h-1.51c-37.57.21-75.64,8.31-110.08,23.42l-3.3,1.45-112.14,194.24,113.51,196.61h224.74Z"/>
      <path class="cls-14" d="M573.71,350.76l107.17,185.63h214.35c18.25-15.58,47.49-44.64,69.19-89.72,18.49-38.42,24.22-73.37,26.13-95.91,1.32-18.6,2.25-67.29-27.47-117.25-22.39-37.64-51.86-58.63-67.84-68.38-21.02-9.22-59.22-22.76-108.62-22.49-47.85.26-84.9,13.35-105.72,22.49-35.72,61.88-71.45,123.75-107.17,185.63Z"/>
      <path class="cls-1" d="M893.75,532.39c27.96-24.14,51.14-54.35,67.07-87.45,14.3-29.71,22.96-61.51,25.74-94.51,1.64-23.2.33-69.05-26.93-114.86-20.33-34.17-47.21-55.21-66.26-66.88-32.97-14.42-69.38-22.05-105.32-22.05h-1.43c-35.11.19-70.67,7.67-102.94,21.63l-105.36,182.49,104.86,181.63h210.56Z"/>
    </g>
    <g id="circle2">
      <path d="M682.53,476.15c90.68,0,164.45-73.77,164.45-164.45s-73.77-164.45-164.45-164.45-164.45,73.77-164.45,164.45,73.77,164.45,164.45,164.45Z"/>
      <path class="cls-5" d="M682.53,462.15c82.96,0,150.45-67.49,150.45-150.45s-67.49-150.45-150.45-150.45-150.45,67.49-150.45,150.45,67.49,150.45,150.45,150.45Z"/>
      <path class="cls-9" d="M682.53,456.15c79.65,0,144.45-64.8,144.45-144.45s-64.8-144.45-144.45-144.45-144.45,64.8-144.45,144.45,64.8,144.45,144.45,144.45Z"/>
      <circle cx="683.92" cy="312.34" r="83.25"/>
      <circle class="cls-8" cx="683.92" cy="311.7" r="29.42"/>
    </g>
    <g id="handle">
      <path d="M871.3,146.61l-51.34-3.42-.25-9.1c-.29-10.68-2.04-21.08-5.21-30.91-11.03-34.22-28.1-47.63-40.49-52.87-6.29-2.65-15.36-3.77-18.7-4.01h-.27l-.61-.07c-4.09-.5-8.48-.79-12.71-.83-.71-.01-1.64-.01-2.8-.01-21.17,0-114.49,1.24-232.21,3.1l-5.71.09-5.7-.09c-117.72-1.86-211.04-3.1-232.21-3.1-1.16,0-2.1,0-2.81.01-4.22.04-8.61.33-12.71.83l-.6.07h-.27c-3.34.24-12.41,1.36-18.7,4.01-12.39,5.24-29.47,18.65-40.49,52.87-3.17,9.83-4.93,20.23-5.22,30.91l-.24,9.1-51.34,3.42,1.22-11.8c.14-1.35,3.61-33.48,18.69-66.07C171.41,23.8,204.11.04,245.19.04c.44,0,.86,0,1.3,0,26.79.32,61.98.48,104.58.48C424.17.53,494.68.05,495.39.04l5.61-.04,5.62.04c.7,0,71.22.49,144.32.49,42.6,0,77.79-.16,104.58-.48.44,0,.86,0,1.29,0,41.09,0,73.79,23.76,94.58,68.7,15.07,32.59,18.55,64.72,18.69,66.07l1.22,11.8Z"/>
      <path class="cls-12" d="M860.13,135.84c-10.14-.67-20.28-1.35-30.42-2.02-.4-14.63-3.25-26.12-5.69-33.71-2.88-8.91-14.75-45.76-46.12-59.01-9.55-4.03-22.26-4.8-22.26-4.8-2.32-.28-7.41-.83-13.81-.9-13.32-.15-103.97,1.03-228.78,2.99-.49,0-.98.01-1.48.02h-21.13c-.17,0-.34,0-.5-.01-125.31-1.96-216.41-3.15-229.77-3-6.39.07-11.48.62-13.8.9,0,0-12.71.77-22.26,4.8-31.37,13.25-43.25,50.1-46.12,59.01-2.45,7.59-5.29,19.08-5.69,33.71-10.14.67-20.28,1.35-30.42,2.02,0,0,13.17-126.89,104.49-125.79,71.77.86,184.59.36,229.6.11,12.26-.07,19.49-.12,19.49-.12v.04h17.59c30.61.19,162.29.93,242.59-.03,91.32-1.1,104.49,125.79,104.49,125.79Z"/>
    </g>
    <g id="circle1">
      <path d="M102.72,547.37l-3.08-2.63c-30.03-25.64-54.92-57.9-71.95-93.31-15.09-31.36-24.24-64.92-27.17-99.75v-.15c-1.78-25-.37-74.31,28.98-123.64,17.4-29.25,42.14-54.19,71.56-72.14l.63-.38.68-.3c34.91-15.32,73.5-23.42,111.59-23.42h1.51c37.57.21,75.64,8.31,110.08,23.42l3.3,1.45,112.14,194.24-113.51,196.61H102.72Z"/>
      <path class="cls-2" d="M428.29,350.76l-107.17,185.63H106.77c-18.25-15.58-47.49-44.64-69.19-89.72-18.49-38.42-24.22-73.37-26.13-95.91-1.32-18.6-2.25-67.29,27.47-117.25,22.39-37.64,51.86-58.63,67.84-68.38,21.02-9.22,59.22-22.76,108.62-22.49,47.85.26,84.9,13.35,105.72,22.49,35.72,61.88,71.45,123.75,107.17,185.63Z"/>
      <path class="cls-6" d="M108.26,532.39c-27.96-24.14-51.14-54.35-67.07-87.45-14.3-29.71-22.96-61.51-25.74-94.51-1.64-23.2-.33-69.05,26.93-114.86,20.33-34.17,47.21-55.21,66.26-66.88,32.97-14.42,69.38-22.05,105.32-22.05h1.43c35.11.19,70.67,7.67,102.94,21.63l105.36,182.49-104.86,181.63H108.26Z"/>
    </g>
    <g id="circle1-2" data-name="circle1">
      <path d="M319.47,476.15c-90.68,0-164.45-73.77-164.45-164.45s73.77-164.45,164.45-164.45,164.45,73.77,164.45,164.45-73.77,164.45-164.45,164.45Z"/>
      <path class="cls-11" d="M319.47,462.15c-82.96,0-150.45-67.49-150.45-150.45s67.49-150.45,150.45-150.45,150.45,67.49,150.45,150.45-67.49,150.45-150.45,150.45Z"/>
      <path class="cls-4" d="M319.47,456.15c-79.65,0-144.45-64.8-144.45-144.45s64.8-144.45,144.45-144.45,144.45,64.8,144.45,144.45-64.8,144.45-144.45,144.45Z"/>
      <circle cx="318.08" cy="312.34" r="83.25"/>
      <circle class="cls-8" cx="318.08" cy="311.7" r="29.42"/>
    </g>
    <g id="decorations">
      <ellipse class="cls-7" cx="501" cy="154.71" rx="86.58" ry="8.06"/>
      <path class="cls-10" d="M396.6,148.12c30.25-3.73,64.41-6.3,101.84-6.41,39.48-.12,75.37,2.52,106.94,6.41"/>
      <path class="cls-10" d="M605.39,162.77c-30.25,3.73-64.41,6.3-101.84,6.41-39.48.12-75.37-2.52-106.94-6.41"/>
      <path class="cls-10" d="M419.8,171.88c11.25,7.32,24.55,18,36.73,33.24,2.72,3.41,11.6,14.82,19.64,31.8,3.04,6.41,9.27,20.62,13.12,39.94.71,3.55,3.87,19.97,3.21,42.27-.35,11.82-1.04,30.46-8.66,53.22-3.73,11.14-10.29,30.12-26.64,49.1-10.53,12.22-20.73,19.36-30.39,26.02-17.93,12.36-34.59,19.67-46.45,24.01"/>
      <path class="cls-10" d="M582.81,171.88c-11.25,7.32-24.55,18-36.73,33.24-2.72,3.41-11.6,14.82-19.64,31.8-3.04,6.41-9.27,20.62-13.12,39.94-.71,3.55-3.87,19.97-3.21,42.27.35,11.82,1.04,30.46,8.66,53.22,3.73,11.14,10.29,30.12,26.64,49.1,10.53,12.22,20.73,19.36,30.39,26.02,17.93,12.36,34.59,19.67,46.45,24.01"/>
      <path class="cls-10" d="M447.12,177.99c13.72,3.42,32.09,6.62,53.87,6.62s40.16-3.2,53.87-6.62"/>
      <path class="cls-10" d="M460.02,191.09c10.43,2.6,24.42,5.04,40.98,5.04s30.55-2.43,40.98-5.04"/>
      <path class="cls-10" d="M470.65,205.77c7.73,1.93,18.08,3.73,30.35,3.73s22.62-1.8,30.35-3.73"/>
      <path class="cls-10" d="M479.06,221.52c5.59,1.39,13.07,2.7,21.94,2.7s16.35-1.3,21.94-2.7"/>
      <path class="cls-10" d="M486.22,235.24c3.76.94,8.81,1.82,14.78,1.82s11.02-.88,14.78-1.82"/>
      <path class="cls-10" d="M491.01,248.08s6.25.37,6.62,13.97"/>
      <path class="cls-10" d="M511.2,248.08s-6.25.37-6.62,13.97"/>
      <path class="cls-10" d="M554.88,449.16c-13.72-3.42-32.09-6.62-53.87-6.62s-40.16,3.2-53.87,6.62"/>
      <path class="cls-10" d="M541.98,436.06c-10.43-2.6-24.42-5.04-40.98-5.04s-30.55,2.43-40.98,5.04"/>
      <path class="cls-10" d="M531.34,421.38c-7.73-1.93-18.08-3.73-30.35-3.73s-22.62,1.8-30.35,3.73"/>
      <path class="cls-10" d="M522.94,405.63c-5.59-1.39-13.07-2.7-21.94-2.7s-16.35,1.3-21.94,2.7"/>
      <path class="cls-10" d="M515.78,391.91c-3.76-.94-8.81-1.82-14.78-1.82s-11.02.88-14.78,1.82"/>
      <path class="cls-10" d="M510.98,379.07s-6.25-.37-6.62-13.97"/>
      <path class="cls-10" d="M490.79,379.07s6.25-.37,6.62-13.97"/>
      <ellipse class="cls-7" cx="501" cy="471.49" rx="76.14" ry="7.08"/>
      <path class="cls-10" d="M408.8,467.13c26.72-3.3,56.89-5.57,89.95-5.67,34.87-.1,66.57,2.22,94.45,5.67"/>
      <path class="cls-10" d="M592.8,478.57c-26.6,3.28-56.64,5.54-89.55,5.64-34.71.1-66.28-2.21-94.04-5.64"/>
    </g>
  </g>
</svg>